<?xml version="1.0" standalone="no"?>
<!DOCTYPE svg PUBLIC "-//W3C//DTD SVG 20010904//EN"
 "http://www.w3.org/TR/2001/REC-SVG-20010904/DTD/svg10.dtd">
<svg version="1.0" xmlns="http://www.w3.org/2000/svg"
 width="260.000000pt" height="260.000000pt" viewBox="0 0 260.000000 260.000000"
 preserveAspectRatio="xMidYMid meet">
<metadata>
Created by potrace 1.11, written by Peter Selinger 2001-2013
</metadata>
<g transform="translate(0.000000,260.000000) scale(0.100000,-0.100000)"
fill="#000000" stroke="none">
<path d="M665 2033 c-44 -13 -71 -36 -227 -191 -161 -162 -177 -182 -192 -231
-14 -46 -16 -119 -16 -470 0 -274 4 -430 11 -456 15 -52 82 -119 134 -134 56
-15 1794 -15 1850 0 52 15 119 82 134 134 15 54 15 1164 0 1218 -13 49 -63
105 -114 128 -38 17 -85 19 -785 18 -636 0 -752 -3 -795 -16z m-89 -558 c24
-60 44 -113 44 -117 0 -4 -16 -8 -35 -8 -29 0 -36 4 -41 25 -6 22 -11 25 -55
25 -44 0 -49 -3 -55 -25 -5 -21 -12 -25 -44 -25 l-38 0 35 88 c68 169 57 154
104 150 l41 -3 44 -110z m264 95 c0 -15 -7 -20 -25 -20 -25 0 -25 -1 -25 -80
0 -79 0 -80 25 -80 18 0 25 -5 25 -20 0 -18 -7 -20 -80 -20 -73 0 -80 2 -80
20 0 13 7 20 20 20 18 0 20 7 20 80 0 73 -2 80 -20 80 -13 0 -20 7 -20 20 0
18 7 20 80 20 73 0 80 -2 80 -20z m268 0 c30 -28 29 -73 -2 -98 l-24 -19 38
-44 c22 -24 39 -47 40 -51 0 -5 -17 -8 -39 -8 -34 0 -43 6 -75 45 -21 25 -44
45 -52 45 -10 0 -14 -13 -14 -45 0 -45 0 -45 -35 -45 l-35 0 0 120 0 120 88 0
c75 0 92 -3 110 -20z m332 0 c0 -17 -7 -20 -40 -20 l-40 0 0 -100 0 -100 -35
0 -35 0 0 100 0 100 -40 0 c-33 0 -40 3 -40 20 0 19 7 20 115 20 108 0 115 -1
115 -20z m210 0 c0 -15 -7 -20 -25 -20 -25 0 -25 -1 -25 -80 0 -79 0 -80 25
-80 18 0 25 -5 25 -20 0 -18 -7 -20 -80 -20 -73 0 -80 2 -80 20 0 13 7 20 20
20 18 0 20 7 20 80 0 73 -2 80 -20 80 -13 0 -20 7 -20 20 0 18 7 20 80 20 73
0 80 -2 80 -20z m194 -37 l29 -58 25 58 c25 57 25 57 69 57 l43 0 0 -120 0
-120 -35 0 -35 0 -1 78 -1 77 -20 -47 c-17 -40 -25 -48 -47 -48 -22 0 -31 8
-48 43 l-22 42 0 -72 -1 -73 -35 0 -35 0 0 120 0 120 43 0 c42 0 43 -1 71 -57z
m446 37 c0 -18 -7 -20 -60 -20 -57 0 -60 -1 -60 -25 0 -24 3 -25 60 -25 53 0
60 -2 60 -20 0 -18 -7 -20 -60 -20 l-60 0 0 -35 0 -35 60 0 c53 0 60 -2 60
-20 0 -19 -7 -20 -95 -20 l-95 0 0 120 0 120 95 0 c88 0 95 -1 95 -20z m-1142
-627 c19 -48 62 -165 62 -169 0 -2 -13 -4 -29 -4 -20 0 -30 6 -34 20 -4 15
-14 20 -40 20 -27 0 -37 -5 -42 -20 -4 -14 -15 -20 -35 -20 l-29 0 30 83 c17
45 34 90 36 100 4 12 15 17 38 17 26 0 35 -5 43 -27z m250 11 c15 -10 22 -25
22 -48 0 -40 -25 -65 -74 -73 -32 -5 -36 -9 -36 -34 0 -26 -4 -29 -30 -29
l-30 0 0 100 0 100 63 0 c40 0 70 -5 85 -16z m232 -4 c46 -46 0 -120 -75 -120
-21 0 -25 -5 -25 -30 0 -25 -4 -30 -25 -30 l-25 0 0 100 0 100 65 0 c52 0 69
-4 85 -20z"/>
<path d="M471 1479 c-14 -41 -15 -39 18 -39 29 0 29 1 18 35 -13 43 -22 44
-36 4z"/>
<path d="M980 1516 c0 -31 3 -36 23 -36 13 0 32 6 43 14 26 20 8 50 -35 54
-30 3 -31 2 -31 -32z"/>
<path d="M1096 886 c-8 -32 -4 -39 17 -34 13 2 13 8 3 33 l-13 30 -7 -29z"/>
<path d="M1310 900 c0 -33 19 -40 44 -15 20 21 10 45 -20 45 -20 0 -24 -5 -24
-30z"/>
<path d="M1530 906 c0 -31 14 -40 40 -26 29 16 21 44 -13 48 -23 3 -27 0 -27
-22z"/>
</g>
</svg>
